<svg xmlns="http://www.w3.org/2000/svg" xmlns:freecad="https://www.freecad.org/wiki/index.php?title=Svg_Namespace" width="420.0mm" height="297.0mm" viewBox="0 0 420.0 297.0" version="1.1">
<rect x="0" y="0" width="420.0" height="297.0" fill="#ffffff" stroke="none"/>
<rect x="20.00" y="5.00" width="395.00" height="287.00" fill="none" stroke="#000000" stroke-width="1.0"/>
<rect x="230.00" y="237.00" width="185.00" height="55.00" fill="none" stroke="#000000" stroke-width="1.0"/>
<line x1="295.00" y1="237.00" x2="295.00" y2="292.00" stroke="#000000" stroke-width="1.0"/>
<line x1="230.00" y1="287.00" x2="295.00" y2="287.00" stroke="#000000" stroke-width="0.35"/>
<line x1="230.00" y1="282.00" x2="295.00" y2="282.00" stroke="#000000" stroke-width="0.35"/>
<line x1="230.00" y1="277.00" x2="295.00" y2="277.00" stroke="#000000" stroke-width="0.35"/>
<line x1="230.00" y1="272.00" x2="295.00" y2="272.00" stroke="#000000" stroke-width="0.35"/>
<line x1="230.00" y1="267.00" x2="295.00" y2="267.00" stroke="#000000" stroke-width="0.35"/>
<line x1="230.00" y1="262.00" x2="295.00" y2="262.00" stroke="#000000" stroke-width="0.35"/>
<line x1="230.00" y1="257.00" x2="295.00" y2="257.00" stroke="#000000" stroke-width="0.35"/>
<line x1="230.00" y1="252.00" x2="295.00" y2="252.00" stroke="#000000" stroke-width="0.35"/>
<line x1="230.00" y1="247.00" x2="295.00" y2="247.00" stroke="#000000" stroke-width="0.35"/>
<line x1="230.00" y1="242.00" x2="295.00" y2="242.00" stroke="#000000" stroke-width="0.35"/>
<line x1="237.00" y1="242.00" x2="237.00" y2="292.00" stroke="#000000" stroke-width="0.35"/>
<line x1="247.00" y1="242.00" x2="247.00" y2="292.00" stroke="#000000" stroke-width="0.35"/>
<line x1="270.00" y1="242.00" x2="270.00" y2="292.00" stroke="#000000" stroke-width="0.35"/>
<line x1="285.00" y1="242.00" x2="285.00" y2="292.00" stroke="#000000" stroke-width="0.35"/>
<line x1="295.00" y1="252.00" x2="415.00" y2="252.00" stroke="#000000" stroke-width="0.35"/>
<line x1="295.00" y1="267.00" x2="415.00" y2="267.00" stroke="#000000" stroke-width="0.35"/>
<line x1="295.00" y1="282.00" x2="415.00" y2="282.00" stroke="#000000" stroke-width="0.35"/>
<line x1="350.00" y1="267.00" x2="350.00" y2="282.00" stroke="#000000" stroke-width="0.35"/>
<line x1="370.00" y1="267.00" x2="370.00" y2="282.00" stroke="#000000" stroke-width="0.35"/>
<line x1="390.00" y1="267.00" x2="390.00" y2="282.00" stroke="#000000" stroke-width="0.35"/>
<line x1="350.00" y1="282.00" x2="350.00" y2="292.00" stroke="#000000" stroke-width="0.35"/>
<line x1="375.00" y1="282.00" x2="375.00" y2="292.00" stroke="#000000" stroke-width="0.35"/>
<text x="352.00" y="269.50" font-family="osifont" font-size="2.0" fill="#000000">Лит.</text>
<text x="371.50" y="269.50" font-family="osifont" font-size="2.0" fill="#000000">Масса</text>
<text x="391.00" y="269.50" font-family="osifont" font-size="2.0" fill="#000000">Масштаб</text>
<text x="352.00" y="284.50" font-family="osifont" font-size="2.0" fill="#000000">Лист</text>
<text x="377.00" y="284.50" font-family="osifont" font-size="2.0" fill="#000000">Листов</text>
<text x="230.50" y="250.50" font-family="osifont" font-size="2.0" fill="#000000">Разраб.</text>
<text id="proto_Author" x="248.00" y="250.50" font-family="osifont" font-size="2.5" fill="#000000" freecad:editable="Author"><tspan id="tspan_Author" x="248.00" y="250.50"></tspan></text>
<text id="proto_AuthorDate" x="271.00" y="250.50" font-family="osifont" font-size="2.5" fill="#000000" freecad:editable="AuthorDate"><tspan id="tspan_AuthorDate" x="271.00" y="250.50"></tspan></text>
<text x="230.50" y="255.50" font-family="osifont" font-size="2.0" fill="#000000">Пров.</text>
<text id="proto_Checker" x="248.00" y="255.50" font-family="osifont" font-size="2.5" fill="#000000" freecad:editable="Checker"><tspan id="tspan_Checker" x="248.00" y="255.50"></tspan></text>
<text id="proto_CheckerDate" x="271.00" y="255.50" font-family="osifont" font-size="2.5" fill="#000000" freecad:editable="CheckerDate"><tspan id="tspan_CheckerDate" x="271.00" y="255.50"></tspan></text>
<text x="230.50" y="260.50" font-family="osifont" font-size="2.0" fill="#000000">Т.контр.</text>
<text id="proto_TechController" x="248.00" y="260.50" font-family="osifont" font-size="2.5" fill="#000000" freecad:editable="TechController"><tspan id="tspan_TechController" x="248.00" y="260.50"></tspan></text>
<text id="proto_TechControllerDate" x="271.00" y="260.50" font-family="osifont" font-size="2.5" fill="#000000" freecad:editable="TechControllerDate"><tspan id="tspan_TechControllerDate" x="271.00" y="260.50"></tspan></text>
<text x="230.50" y="270.50" font-family="osifont" font-size="2.0" fill="#000000">Н.контр.</text>
<text id="proto_Normcontrol" x="248.00" y="270.50" font-family="osifont" font-size="2.5" fill="#000000" freecad:editable="Normcontrol"><tspan id="tspan_Normcontrol" x="248.00" y="270.50"></tspan></text>
<text id="proto_NormcontrolDate" x="271.00" y="270.50" font-family="osifont" font-size="2.5" fill="#000000" freecad:editable="NormcontrolDate"><tspan id="tspan_NormcontrolDate" x="271.00" y="270.50"></tspan></text>
<text x="230.50" y="275.50" font-family="osifont" font-size="2.0" fill="#000000">Утв.</text>
<text id="proto_Approver" x="248.00" y="275.50" font-family="osifont" font-size="2.5" fill="#000000" freecad:editable="Approver"><tspan id="tspan_Approver" x="248.00" y="275.50"></tspan></text>
<text id="proto_ApproverDate" x="271.00" y="275.50" font-family="osifont" font-size="2.5" fill="#000000" freecad:editable="ApproverDate"><tspan id="tspan_ApproverDate" x="271.00" y="275.50"></tspan></text>
<text id="proto_Designation" x="300.00" y="262.00" font-family="osifont" font-size="5.0" fill="#000000" freecad:editable="Designation"><tspan id="tspan_Designation" x="300.00" y="262.00">АБВГ.XXXXXX.XXX</tspan></text>
<text id="proto_Title" x="300.00" y="277.00" font-family="osifont" font-size="3.5" fill="#000000" freecad:editable="Title"><tspan id="tspan_Title" x="300.00" y="277.00">Наименование</tspan></text>
<text id="proto_Litera" x="358.00" y="277.00" font-family="osifont" font-size="3.5" fill="#000000" freecad:editable="Litera"><tspan id="tspan_Litera" x="358.00" y="277.00"></tspan></text>
<text id="proto_Mass" x="376.00" y="277.00" font-family="osifont" font-size="3.5" fill="#000000" freecad:editable="Mass"><tspan id="tspan_Mass" x="376.00" y="277.00"></tspan></text>
<text id="proto_Scale" x="395.00" y="277.00" font-family="osifont" font-size="3.5" fill="#000000" freecad:editable="Scale"><tspan id="tspan_Scale" x="395.00" y="277.00">1:1</tspan></text>
<text id="proto_Sheet" x="363.00" y="289.50" font-family="osifont" font-size="3.5" fill="#000000" freecad:editable="Sheet"><tspan id="tspan_Sheet" x="363.00" y="289.50">1</tspan></text>
<text id="proto_Sheets" x="390.00" y="289.50" font-family="osifont" font-size="3.5" fill="#000000" freecad:editable="Sheets"><tspan id="tspan_Sheets" x="390.00" y="289.50">1</tspan></text>
</svg>